<svg width="59" height="59" viewBox="0 0 59 59" fill="none" xmlns="http://www.w3.org/2000/svg">
<path d="M29.5 4.91666C18.6588 4.91666 9.83336 13.7421 9.83336 24.5833C9.75961 40.415 27.3367 53.1 28.0742 53.6408C28.4921 53.9358 29.0084 54.1079 29.5 54.1079C29.9917 54.1079 30.5079 53.9604 30.9259 53.6408C31.6634 53.1 49.2404 40.4396 49.1667 24.5833C49.1667 13.7421 40.3413 4.91666 29.5 4.91666ZM29.5 34.4167C24.0671 34.4167 19.6667 30.0162 19.6667 24.5833C19.6667 19.1504 24.0671 14.75 29.5 14.75C34.9329 14.75 39.3334 19.1504 39.3334 24.5833C39.3334 30.0162 34.9329 34.4167 29.5 34.4167Z" fill="#5F5E59"/>
</svg>
