<svg width="59" height="59" viewBox="0 0 59 59" fill="none" xmlns="http://www.w3.org/2000/svg">
<path d="M29.4999 4.91666C18.6587 4.91666 9.83324 13.7421 9.83324 24.5833C9.75949 40.415 27.3366 53.1 28.0741 53.6408C28.492 53.9358 29.0082 54.1079 29.4999 54.1079C29.9916 54.1079 30.5078 53.9604 30.9257 53.6408C31.6632 53.1 49.2403 40.4396 49.1666 24.5833C49.1666 13.7421 40.3412 4.91666 29.4999 4.91666ZM29.4999 34.4167C24.067 34.4167 19.6666 30.0162 19.6666 24.5833C19.6666 19.1504 24.067 14.75 29.4999 14.75C34.9328 14.75 39.3332 19.1504 39.3332 24.5833C39.3332 30.0162 34.9328 34.4167 29.4999 34.4167Z" fill="#E55151"/>
</svg>
