<svg width="39" height="39" viewBox="0 0 39 39" fill="none" xmlns="http://www.w3.org/2000/svg">
<path d="M30.8752 17.875H12.7239L20.6539 9.94495C21.2877 9.3112 21.2877 8.2712 20.6539 7.63745C20.5036 7.48681 20.325 7.36729 20.1284 7.28575C19.9319 7.2042 19.7211 7.16223 19.5083 7.16223C19.2955 7.16223 19.0848 7.2042 18.8882 7.28575C18.6916 7.36729 18.513 7.48681 18.3627 7.63745L7.65393 18.3462C7.50329 18.4965 7.38377 18.6751 7.30223 18.8717C7.22069 19.0683 7.17871 19.279 7.17871 19.4918C7.17871 19.7047 7.22069 19.9154 7.30223 20.112C7.38377 20.3085 7.50329 20.4871 7.65393 20.6375L18.3627 31.3462C18.5131 31.4966 18.6917 31.616 18.8883 31.6974C19.0849 31.7788 19.2955 31.8207 19.5083 31.8207C19.7211 31.8207 19.9317 31.7788 20.1283 31.6974C20.3249 31.616 20.5035 31.4966 20.6539 31.3462C20.8044 31.1958 20.9237 31.0172 21.0051 30.8206C21.0866 30.624 21.1285 30.4133 21.1285 30.2006C21.1285 29.9878 21.0866 29.7771 21.0051 29.5806C20.9237 29.384 20.8044 29.2054 20.6539 29.055L12.7239 21.125H30.8752C31.7689 21.125 32.5002 20.3937 32.5002 19.5C32.5002 18.6062 31.7689 17.875 30.8752 17.875Z" fill="#5B4A4A"/>
</svg>
