<svg width="13" height="13" viewBox="0 0 13 13" fill="none" xmlns="http://www.w3.org/2000/svg">
<path d="M6.5 11.375C7.46418 11.375 8.40671 11.0891 9.2084 10.5534C10.0101 10.0177 10.6349 9.25637 11.0039 8.36558C11.3729 7.47479 11.4694 6.49459 11.2813 5.54894C11.0932 4.60328 10.6289 3.73464 9.94714 3.05286C9.26536 2.37108 8.39672 1.90678 7.45106 1.71867C6.50541 1.53057 5.52521 1.62711 4.63442 1.99609C3.74363 2.36507 2.98226 2.98991 2.44659 3.7916C1.91091 4.59329 1.625 5.53582 1.625 6.5C1.625 7.28 1.80808 8.01667 2.13417 8.67046C2.37954 9.16392 2.03829 9.82963 1.90829 10.3155C1.87949 10.423 1.87949 10.5361 1.90828 10.6436C1.93707 10.751 1.99364 10.849 2.07231 10.9277C2.15098 11.0064 2.24897 11.0629 2.35643 11.0917C2.46389 11.1205 2.57704 11.1205 2.6845 11.0917C3.17037 10.9617 3.83608 10.6205 4.32954 10.8664C5.00403 11.2013 5.74694 11.3754 6.5 11.375Z" stroke="black" stroke-linecap="round" stroke-linejoin="round"/>
</svg>
