<svg width="16" height="16" viewBox="0 0 16 16" fill="none" xmlns="http://www.w3.org/2000/svg">
<path d="M12.714 8.76133L8.94267 12.5333C8.69263 12.7833 8.35356 12.9237 8 12.9237C7.64645 12.9237 7.30737 12.7833 7.05734 12.5333L3.286 8.762C2.97425 8.45296 2.72661 8.08539 2.55729 7.68039C2.38797 7.27539 2.30032 6.84094 2.29935 6.40197C2.29839 5.96301 2.38415 5.52817 2.55169 5.12243C2.71923 4.7167 2.96526 4.34805 3.27566 4.03765C3.58605 3.72725 3.9547 3.48122 4.36044 3.31368C4.76618 3.14614 5.20101 3.06039 5.63998 3.06135C6.07895 3.06231 6.5134 3.14996 6.9184 3.31928C7.3234 3.4886 7.69097 3.73624 8 4.048C8.62771 3.43591 9.4713 3.09577 10.348 3.10127C11.2247 3.10676 12.064 3.45744 12.684 4.07735C13.304 4.69725 13.6548 5.53646 13.6604 6.41318C13.666 7.2899 13.326 8.13353 12.714 8.76133Z" fill="#FA1D1D" stroke="#FA1D1D" stroke-linecap="round" stroke-linejoin="round"/>
</svg>
