<svg width="13" height="13" viewBox="0 0 13 13" fill="none" xmlns="http://www.w3.org/2000/svg">
<path d="M11.4147 7.69999L7.64332 11.472C7.39329 11.722 7.05421 11.8624 6.70066 11.8624C6.3471 11.8624 6.00803 11.722 5.75799 11.472L1.98666 7.70066C1.6749 7.39162 1.42726 7.02405 1.25794 6.61905C1.08862 6.21405 1.00097 5.7796 1.00001 5.34063C0.999047 4.90167 1.0848 4.46683 1.25234 4.06109C1.41988 3.65536 1.66591 3.28671 1.97631 2.97631C2.28671 2.66591 2.65536 2.41988 3.06109 2.25234C3.46683 2.0848 3.90167 1.99905 4.34063 2.00001C4.7796 2.00097 5.21405 2.08862 5.61905 2.25794C6.02405 2.42726 6.39162 2.6749 6.70066 2.98666C7.32837 2.37457 8.17195 2.03443 9.04868 2.03993C9.9254 2.04542 10.7647 2.3961 11.3846 3.016C12.0046 3.63591 12.3554 4.47512 12.3611 5.35184C12.3667 6.22856 12.0267 7.07219 11.4147 7.69999Z" stroke="black" stroke-linecap="round" stroke-linejoin="round"/>
</svg>
