<svg width="13" height="13" viewBox="0 0 13 13" fill="none" xmlns="http://www.w3.org/2000/svg">
<path d="M5.5835 7.4165L8.20842 4.79158M10.8929 3.19041L8.6775 10.3913C8.47871 11.037 8.37958 11.3598 8.20787 11.4665C8.13475 11.5122 8.05178 11.5398 7.96586 11.5469C7.87994 11.5541 7.79355 11.5407 7.71388 11.5077C7.52754 11.4302 7.37587 11.1285 7.07362 10.524L5.67071 7.71712C5.64202 7.65209 5.60701 7.59004 5.56617 7.53187C5.53799 7.49516 5.50522 7.46221 5.46867 7.43383C5.41223 7.39464 5.3522 7.3609 5.28938 7.33308L2.4765 5.92583C1.87254 5.62358 1.57029 5.47246 1.49283 5.28612C1.45979 5.20637 1.44629 5.11988 1.45345 5.03386C1.46061 4.94784 1.48823 4.86477 1.534 4.79158C1.64071 4.62041 1.96354 4.52075 2.60921 4.32196L9.81067 2.10654C10.3182 1.95 10.5717 1.872 10.7434 1.93537C10.8172 1.96246 10.8842 2.00526 10.9397 2.06082C10.9953 2.11638 11.0381 2.18337 11.0652 2.25712C11.128 2.42829 11.05 2.68179 10.894 3.18879L10.8929 3.19041Z" stroke="black" stroke-linecap="round" stroke-linejoin="round"/>
</svg>
